<?xml version="1.0" encoding="UTF-8"?>
<svg xmlns="http://www.w3.org/2000/svg" xmlns:xlink="http://www.w3.org/1999/xlink" width="788.04pt" height="792.96pt" viewBox="0 0 788.04 792.96" version="1.2">
<g id="surface1">
<path style=" stroke:none;fill-rule:evenodd;fill:rgb(99.198914%,59.599304%,7.449341%);fill-opacity:0.39216;" d="M 760.800781 656.890625 C 760.800781 718.222656 596.183594 767.941406 393.113281 767.941406 C 190.046875 767.941406 25.425781 718.222656 25.425781 656.890625 C 25.425781 595.554688 190.046875 545.835938 393.113281 545.835938 C 596.183594 545.835938 760.800781 595.554688 760.800781 656.890625 Z M 760.800781 656.890625 "/>
<path style=" stroke:none;fill-rule:evenodd;fill:rgb(99.198914%,59.599304%,7.449341%);fill-opacity:0.39216;" d="M 760.800781 138.640625 C 760.800781 199.972656 596.183594 249.691406 393.113281 249.691406 C 190.046875 249.691406 25.425781 199.972656 25.425781 138.640625 C 25.425781 77.304688 190.046875 27.585938 393.113281 27.585938 C 596.183594 27.585938 760.800781 77.304688 760.800781 138.640625 Z M 760.800781 138.640625 "/>
<path style=" stroke:none;fill-rule:evenodd;fill:rgb(99.198914%,59.599304%,7.449341%);fill-opacity:0.39216;" d="M 38.390625 167.867188 C 91.832031 227.035156 293.976562 261.917969 489.882812 245.777344 C 615.46875 235.429688 713.578125 205.796875 747.839844 167.867188 C 540.1875 397.765625 540.1875 397.765625 747.839844 627.660156 C 801.28125 686.832031 685.792969 747.882812 489.882812 764.027344 C 293.976562 780.171875 91.832031 745.289062 38.390625 686.117188 C 21.105469 666.984375 21.105469 646.796875 38.390625 627.660156 C 246.039062 397.765625 246.039062 397.765625 38.390625 167.867188 Z M 38.390625 167.867188 "/>
<path style="fill:none;stroke-width:10;stroke-linecap:round;stroke-linejoin:round;stroke:rgb(0%,0%,0%);stroke-opacity:1;stroke-miterlimit:10;" d="M 128.343825 2089.776419 C -50.329375 2287.461406 335.759878 2491.423557 990.694707 2545.360186 C 1645.655655 2599.283764 2321.432644 2482.74515 2500.105844 2285.073213 C 2557.878848 2221.140103 2557.878848 2153.70953 2500.105844 2089.776419 C 1805.90261 1321.717783 1805.90261 1321.717783 2500.105844 553.672198 C 2678.765985 355.987211 2292.676732 152.02506 1637.728843 98.088431 C 982.794014 44.151803 307.003966 160.690417 128.343825 358.375404 C 70.557762 422.295464 70.557762 489.739088 128.343825 553.672198 C 822.534 1321.717783 822.534 1321.717783 128.343825 2089.776419 Z M 128.343825 2089.776419 " transform="matrix(0.299123,0,0,-0.299324,0,793.387572)"/>
<path style="fill:none;stroke-width:10;stroke-linecap:round;stroke-linejoin:round;stroke:rgb(0%,0%,0%);stroke-opacity:1;stroke-miterlimit:10;" d="M 128.343825 2089.776419 C 307.003966 1892.104483 982.794014 1775.565868 1637.728843 1829.489447 C 2057.575605 1864.059524 2385.565379 1963.05862 2500.105844 2089.776419 " transform="matrix(0.299123,0,0,-0.299324,0,793.387572)"/>
<path style="fill:none;stroke-width:5;stroke-linecap:round;stroke-linejoin:round;stroke:rgb(0%,0%,0%);stroke-opacity:1;stroke-dasharray:10,10;stroke-miterlimit:10;" d="M 2500.105844 553.672198 C 2321.432644 751.344134 1645.655655 867.895799 990.694707 813.95917 C 570.861005 779.389093 242.871231 680.389997 128.343825 553.672198 " transform="matrix(0.299123,0,0,-0.299324,0,793.387572)"/>
</g>
</svg>
